<svg xmlns="http://www.w3.org/2000/svg" viewBox="0 0 40 32.541"><defs><style>.a{fill:#efe4ea;}</style></defs><g transform="translate(0.013)"><path class="a" d="M16.961,5.352A23.651,23.651,0,0,0,9.01,14.679a11.148,11.148,0,0,0-1.193,4.058c.374-.07.732-.148,1.1-.2a6.821,6.821,0,0,1,7.167,4.18A7.865,7.865,0,0,1,13.7,31.966a8.061,8.061,0,0,1-9.754-.035A9.9,9.9,0,0,1,.258,25.478,21.383,21.383,0,0,1,1.468,14.444,27.721,27.721,0,0,1,11.292,1.3a.465.465,0,0,1,.7.009C13.625,2.661,15.28,3.985,16.961,5.352Z" transform="translate(0 -1.05)"/><path class="a" d="M276.391,0c1.768,1.428,3.51,2.848,5.277,4.276-4.589,3.422-7.986,7.637-9.249,13.446.531-.1.932-.174,1.341-.235a6.688,6.688,0,0,1,6.732,3.544,7.573,7.573,0,0,1-.418,8.09,7.335,7.335,0,0,1-7.272,3.344c-3.588-.383-5.852-2.5-7.167-5.739a14.178,14.178,0,0,1-.836-6.671c.74-8.265,4.642-14.752,11.164-19.743A4.209,4.209,0,0,1,276.391,0Z" transform="translate(-241.682)"/></g></svg>